<svg width="48" height="48" viewBox="0 0 48 48" fill="none" xmlns="http://www.w3.org/2000/svg">
<circle cx="24" cy="24" r="24" fill="#FFCA28"/>
<path d="M19.0099 16.4545H22.4759V26.5114C22.4711 27.4536 22.2462 28.2775 21.8011 28.983C21.3561 29.6837 20.7405 30.2282 19.9545 30.6165C19.1733 31.0047 18.2689 31.1989 17.2415 31.1989C16.3324 31.1989 15.5062 31.0402 14.7628 30.723C14.0241 30.4058 13.4347 29.9134 12.9943 29.2457C12.5587 28.5781 12.3433 27.7235 12.348 26.6818H15.8494C15.8636 27.0559 15.9347 27.3755 16.0625 27.6406C16.1951 27.901 16.3774 28.0975 16.6094 28.2301C16.8414 28.3627 17.1184 28.429 17.4403 28.429C17.7765 28.429 18.0606 28.358 18.2926 28.2159C18.5246 28.0691 18.6998 27.8537 18.8182 27.5696C18.9413 27.2855 19.0052 26.9328 19.0099 26.5114V16.4545ZM32.5451 20.8153C32.4978 20.2945 32.2871 19.8897 31.913 19.6009C31.5437 19.3073 31.0157 19.1605 30.3292 19.1605C29.8746 19.1605 29.4959 19.2197 29.1928 19.3381C28.8898 19.4564 28.6625 19.6198 28.511 19.8281C28.3595 20.0317 28.2814 20.2661 28.2766 20.5312C28.2672 20.7491 28.3098 20.9408 28.4045 21.1065C28.5039 21.2723 28.646 21.419 28.8306 21.5469C29.02 21.67 29.2473 21.7789 29.5124 21.8736C29.7776 21.9683 30.0759 22.0511 30.4073 22.1222L31.6573 22.4062C32.377 22.5625 33.0115 22.7708 33.5607 23.0312C34.1147 23.2917 34.5787 23.6018 34.9528 23.9616C35.3316 24.3215 35.618 24.7358 35.8121 25.2045C36.0063 25.6733 36.1057 26.1989 36.1104 26.7812C36.1057 27.6998 35.8737 28.4882 35.4144 29.1463C34.9551 29.8045 34.2946 30.3087 33.4329 30.6591C32.5759 31.0095 31.5413 31.1847 30.3292 31.1847C29.1123 31.1847 28.0517 31.0024 27.1474 30.6378C26.243 30.2732 25.5399 29.7192 25.038 28.9759C24.5361 28.2325 24.2781 27.2926 24.2638 26.1562H27.6303C27.6587 26.625 27.7842 27.0156 28.0067 27.3281C28.2293 27.6406 28.5347 27.8774 28.9229 28.0384C29.3159 28.1993 29.7705 28.2798 30.2866 28.2798C30.7601 28.2798 31.1625 28.2159 31.494 28.0881C31.8301 27.9602 32.0882 27.7827 32.2681 27.5554C32.448 27.3281 32.5404 27.0677 32.5451 26.7741C32.5404 26.4995 32.4551 26.2652 32.2894 26.071C32.1237 25.8722 31.868 25.7017 31.5224 25.5597C31.1815 25.4129 30.7459 25.2779 30.2156 25.1548L28.6957 24.7997C27.4362 24.5109 26.4442 24.0445 25.7198 23.4006C24.9954 22.7519 24.6355 21.8759 24.6403 20.7727C24.6355 19.8731 24.877 19.0848 25.3647 18.4077C25.8524 17.7306 26.5271 17.2027 27.3888 16.8239C28.2506 16.4451 29.2331 16.2557 30.3363 16.2557C31.4632 16.2557 32.4409 16.4474 33.2695 16.831C34.1029 17.2098 34.7492 17.7424 35.2085 18.429C35.6677 19.1155 35.9021 19.911 35.9116 20.8153H32.5451Z" fill="#3E3E3E"/>
</svg>
