<svg width="48" height="48" viewBox="0 0 48 48" fill="none" xmlns="http://www.w3.org/2000/svg">
<rect x="3" y="3" width="42" height="42" rx="21" fill="#1275B1"/>
<path d="M18.9278 14.5382C18.9278 15.94 17.7128 17.0764 16.2139 17.0764C14.7151 17.0764 13.5 15.94 13.5 14.5382C13.5 13.1364 14.7151 12 16.2139 12C17.7128 12 18.9278 13.1364 18.9278 14.5382Z" fill="white"/>
<path d="M13.8711 18.9421H18.5103V33H13.8711V18.9421Z" fill="white"/>
<path d="M25.9794 18.9421H21.3402V33H25.9794C25.9794 33 25.9794 28.5744 25.9794 25.8073C25.9794 24.1464 26.5465 22.4783 28.8093 22.4783C31.3665 22.4783 31.3511 24.6518 31.3392 26.3356C31.3236 28.5367 31.3608 30.7828 31.3608 33H36V25.5806C35.9607 20.8431 34.7262 18.6601 30.6649 18.6601C28.2531 18.6601 26.7581 19.7551 25.9794 20.7457V18.9421Z" fill="white"/>
</svg>
