<svg width="48" height="48" viewBox="0 0 48 48" fill="none" xmlns="http://www.w3.org/2000/svg">
<path d="M25.1488 4.23258C24.1506 3.67121 22.8494 3.67374 21.8503 4.23258C16.8468 6.99381 11.8433 9.75589 6.83897 12.5159C5.86519 13.0281 5.2084 14.0739 5.21887 15.1593V31.843C5.21184 32.9496 5.9025 34.0054 6.90139 34.5107C8.33882 35.2754 9.73534 36.1178 11.1987 36.8316C12.8892 37.6622 15.004 37.8459 16.7151 36.9797C18.104 36.2617 18.7209 34.6649 18.7192 33.1975C18.7304 27.6914 18.7209 22.1852 18.7235 16.6792C18.7565 16.4345 18.5728 16.1729 18.3059 16.1788C17.6665 16.1687 17.0262 16.1729 16.3868 16.1771C16.1451 16.1543 15.9094 16.3549 15.9276 16.5978C15.919 22.0684 15.9293 27.5407 15.9224 33.0121C15.9363 33.769 15.4251 34.4964 14.6957 34.752C13.0111 35.3425 8.20278 32.2205 8.20278 32.2205C8.02633 32.1387 7.91427 31.9474 7.93157 31.7573C7.93157 26.2529 7.93243 20.7484 7.93157 15.2448C7.90732 15.023 8.04407 14.8232 8.24784 14.7326C13.2348 11.9876 18.2193 9.23576 23.2063 6.4891C23.3794 6.3735 23.6209 6.37384 23.7937 6.48995C28.7808 9.23576 33.766 11.9851 38.7539 14.7302C38.9584 14.8206 39.0893 15.0238 39.0684 15.2448C39.0676 20.7484 39.0702 26.2529 39.0667 31.7564C39.0815 31.9512 38.9809 32.14 38.799 32.2255C33.8585 34.9556 28.8618 37.5976 23.9661 40.407C23.7525 40.5296 23.5106 40.6684 23.2713 40.5334C21.9838 39.8212 20.712 39.0814 19.4288 38.3624C19.2893 38.2753 19.1117 38.238 18.9662 38.3353C18.3908 38.6385 17.8497 38.8841 17.1891 39.1456C16.2611 39.5129 16.4094 39.6632 17.2462 40.1507C18.7469 40.9999 20.2501 41.8458 21.7506 42.6959C22.7385 43.3124 24.0658 43.3563 25.0855 42.7865C30.0899 40.0288 35.0925 37.2677 40.0978 34.51C41.0941 34.0019 41.7882 32.9503 41.7811 31.8428V15.1593C41.7908 14.0959 41.1591 13.0688 40.2147 12.549C35.1938 9.77426 30.1705 7.00559 25.1488 4.23258Z" fill="#8CC84B"/>
<path d="M32.6995 16.7588C30.7354 15.708 28.3988 15.6521 26.2162 15.7893C24.6394 15.9451 22.981 16.3803 21.8321 17.5106C20.6539 18.6469 20.3974 20.4817 20.9571 21.9651C21.3582 23.0132 22.3677 23.6949 23.4116 24.0555C24.7565 24.5302 26.1689 24.677 27.5818 24.8238C28.8705 24.9578 30.1596 25.0917 31.3982 25.4746C31.9042 25.6423 32.4934 25.8988 32.6484 26.4493C32.7915 27.1012 32.6346 27.859 32.1053 28.312C30.4239 29.6428 25.747 29.4389 24.0858 28.3915C23.4142 27.9453 23.1248 27.1553 23.0071 26.4027C22.994 26.1681 22.8052 25.953 22.5505 25.9708C21.9128 25.9632 21.2751 25.9649 20.6374 25.9699C20.4148 25.9513 20.1835 26.1096 20.1713 26.3367C20.0403 29.7843 23.2066 31.2873 26.1773 31.6183C27.8746 31.78 29.6091 31.7707 31.2804 31.4065C32.5368 31.1205 33.7964 30.5937 34.6613 29.626C35.7277 28.45 35.9374 26.699 35.4591 25.2341C35.0935 24.1411 34.0485 23.44 32.9803 23.0793C31.5277 22.5812 29.8062 22.3135 28.4905 22.1882C26.5781 22.006 24.3056 22.0804 23.7644 20.8238C23.5485 20.1658 23.7322 19.3488 24.3369 18.9441C25.9368 17.8588 29.1929 18.0029 30.8498 18.8136C31.6106 19.1947 32.0514 19.977 32.2334 20.767C32.2671 20.999 32.4232 21.2411 32.6919 21.231C33.3251 21.2436 33.9585 21.2344 34.5918 21.2352C34.8093 21.2505 35.0476 21.1276 35.09 20.905C35.0632 19.254 34.2201 17.564 32.6995 16.7588Z" fill="#8CC84B"/>
</svg>
