<svg width="48" height="48" viewBox="0 0 48 48" fill="none" xmlns="http://www.w3.org/2000/svg">
<path d="M31.2335 30.9451C32.6174 30.8043 33.6672 29.6314 33.6195 28.2238C33.5719 26.8164 32.3788 25.6904 30.9472 25.6904H30.8518C29.3723 25.7373 28.2271 26.9571 28.2749 28.4115C28.3226 29.1153 28.6088 29.7252 29.0383 30.1474C27.4159 33.2909 24.9344 35.5898 21.2123 37.5134C18.6831 38.8271 16.0585 39.2963 13.4339 38.9679C11.2865 38.6864 9.61626 37.7481 8.56626 36.1997C7.0393 33.9008 6.89619 31.4141 8.18467 28.9276C9.0914 27.1447 10.5228 25.8311 11.4296 25.1742C11.2387 24.5643 10.9523 23.5322 10.8092 22.7816C3.88974 27.7078 4.60561 34.37 6.70532 37.5134C8.28003 39.8593 11.4773 41.3137 15.0086 41.3137C15.963 41.3137 16.9173 41.2198 17.8718 40.9854C23.9801 39.8124 28.609 36.2466 31.2335 30.9451V30.9451ZM39.6324 25.1274C36.0056 20.9518 30.6609 18.6529 24.5527 18.6529H23.7892C23.3597 17.8084 22.453 17.2453 21.4509 17.2453H21.3554C19.8762 17.2923 18.731 18.512 18.7786 19.9666C18.8263 21.374 20.0193 22.5 21.4509 22.5H21.5462C22.5961 22.4531 23.5028 21.7963 23.8846 20.9048H24.7436C28.3704 20.9048 31.8062 21.937 34.9081 23.9544C37.294 25.5027 39.012 27.5202 39.9664 29.9598C40.7776 31.9303 40.7298 33.8539 39.8708 35.496C38.5348 37.9826 36.2919 39.3432 33.3332 39.3432C31.4244 39.3432 29.6111 38.7801 28.6566 38.3579C28.1317 38.8271 27.1772 39.5777 26.5091 40.047C28.5612 40.9852 30.6609 41.5014 32.6651 41.5014C37.2463 41.5014 40.6345 39.0147 41.9229 36.5282C43.3068 33.8069 43.2113 29.1153 39.6324 25.1274V25.1274ZM15.3904 31.7425C15.4381 33.1501 16.6311 34.276 18.0627 34.276H18.1582C19.6375 34.2292 20.7828 33.0092 20.735 31.5548C20.6874 30.1473 19.4943 29.0214 18.0627 29.0214H17.9673C17.8718 29.0214 17.7286 29.0214 17.6333 29.0682C15.6768 25.8779 14.8655 22.4061 15.1519 18.6527C15.3426 15.8377 16.2971 13.398 17.9673 11.3805C19.3512 9.6446 22.0235 8.80011 23.837 8.7533C28.8952 8.6594 31.0425 14.8524 31.1858 17.3391C31.8061 17.4798 32.856 17.8082 33.5719 18.0428C32.9991 10.4424 28.2271 6.50137 23.6461 6.50137C19.3512 6.50137 15.3904 9.55099 13.8155 14.055C11.6205 20.0603 13.052 25.8311 15.7244 30.382C15.4859 30.7104 15.3426 31.2265 15.3904 31.7426V31.7425Z" fill="#764ABC"/>
</svg>
