<svg width="48" height="48" viewBox="0 0 48 48" fill="none" xmlns="http://www.w3.org/2000/svg">
<mask id="mask0_58_84" style="mask-type:alpha" maskUnits="userSpaceOnUse" x="0" y="0" width="48" height="48">
<rect width="48" height="48" rx="24" fill="#D9D9D9"/>
</mask>
<g mask="url(#mask0_58_84)">
</g>
<g clip-path="url(#clip0_58_84)">
<mask id="mask1_58_84" style="mask-type:luminance" maskUnits="userSpaceOnUse" x="4" y="12" width="41" height="24">
<path d="M4.21216 12.0314H44.0712V35.9468H4.21216V12.0314Z" fill="white"/>
</mask>
<g mask="url(#mask1_58_84)">
<path fill-rule="evenodd" clip-rule="evenodd" d="M24.1417 12.0314C18.8271 12.0314 15.5055 14.6887 14.1769 20.0032C16.1699 17.3459 18.495 16.3495 21.1522 17.0138C22.6684 17.3924 23.7519 18.493 24.9514 19.7102C26.9052 21.6935 29.1668 23.9891 34.1064 23.9891C39.4209 23.9891 42.7425 21.3318 44.0712 16.0173C42.0782 18.6746 39.7531 19.671 37.0958 19.0067C35.5797 18.6281 34.4961 17.5275 33.2967 16.3103C31.3429 14.327 29.0812 12.0314 24.1417 12.0314ZM14.1769 23.9891C8.86238 23.9891 5.54079 26.6464 4.21216 31.9609C6.20511 29.3036 8.53022 28.3072 11.1875 28.9715C12.7036 29.3509 13.7872 30.4507 14.9866 31.6679C16.9405 33.6512 19.2021 35.9468 24.1417 35.9468C29.4562 35.9468 32.7778 33.2895 34.1064 27.975C32.1135 30.6323 29.7884 31.6287 27.1311 30.9644C25.615 30.5858 24.5314 29.4852 23.3319 28.268C21.3781 26.2847 19.1165 23.9891 14.1769 23.9891Z" fill="#38BDF8"/>
</g>
</g>
<defs>
<clipPath id="clip0_58_84">
<rect width="39.859" height="24.3583" fill="white" transform="translate(4.21057 12.0314)"/>
</clipPath>
</defs>
</svg>
