<svg width="48" height="48" viewBox="0 0 48 48" fill="none" xmlns="http://www.w3.org/2000/svg">
<circle cx="24" cy="24" r="24" fill="#3178C6"/>
<path d="M11.625 19.3097V16.4545H23.919V19.3097H19.5085V31H16.0426V19.3097H11.625ZM33.4982 20.8153C33.4509 20.2945 33.2402 19.8897 32.8661 19.6009C32.4968 19.3073 31.9689 19.1605 31.2823 19.1605C30.8278 19.1605 30.449 19.2197 30.146 19.3381C29.8429 19.4564 29.6156 19.6198 29.4641 19.8281C29.3126 20.0317 29.2345 20.2661 29.2298 20.5312C29.2203 20.7491 29.2629 20.9408 29.3576 21.1065C29.457 21.2723 29.5991 21.419 29.7837 21.5469C29.9731 21.67 30.2004 21.7789 30.4656 21.8736C30.7307 21.9683 31.029 22.0511 31.3604 22.1222L32.6104 22.4062C33.3301 22.5625 33.9646 22.7708 34.5138 23.0312C35.0678 23.2917 35.5318 23.6018 35.9059 23.9616C36.2847 24.3215 36.5711 24.7358 36.7653 25.2045C36.9594 25.6733 37.0588 26.1989 37.0636 26.7812C37.0588 27.6998 36.8268 28.4882 36.3675 29.1463C35.9083 29.8045 35.2478 30.3087 34.386 30.6591C33.529 31.0095 32.4944 31.1847 31.2823 31.1847C30.0655 31.1847 29.0049 31.0024 28.1005 30.6378C27.1961 30.2732 26.493 29.7192 25.9911 28.9759C25.4892 28.2325 25.2312 27.2926 25.217 26.1562H28.5835C28.6119 26.625 28.7373 27.0156 28.9599 27.3281C29.1824 27.6406 29.4878 27.8774 29.8761 28.0384C30.2691 28.1993 30.7236 28.2798 31.2397 28.2798C31.7132 28.2798 32.1156 28.2159 32.4471 28.0881C32.7833 27.9602 33.0413 27.7827 33.2212 27.5554C33.4012 27.3281 33.4935 27.0677 33.4982 26.7741C33.4935 26.4995 33.4083 26.2652 33.2425 26.071C33.0768 25.8722 32.8211 25.7017 32.4755 25.5597C32.1346 25.4129 31.699 25.2779 31.1687 25.1548L29.6488 24.7997C28.3893 24.5109 27.3974 24.0445 26.6729 23.4006C25.9485 22.7519 25.5887 21.8759 25.5934 20.7727C25.5887 19.8731 25.8301 19.0848 26.3178 18.4077C26.8055 17.7306 27.4802 17.2027 28.342 16.8239C29.2037 16.4451 30.1862 16.2557 31.2894 16.2557C32.4163 16.2557 33.3941 16.4474 34.2227 16.831C35.056 17.2098 35.7023 17.7424 36.1616 18.429C36.6209 19.1155 36.8552 19.911 36.8647 20.8153H33.4982Z" fill="white"/>
</svg>
